<svg xmlns="http://www.w3.org/2000/svg" width="1280" height="840" viewBox="0 0 1280 840" role="img" aria-label="After portrait sample">
  <defs>
    <linearGradient id="bg" x1="0" y1="0" x2="1" y2="1">
      <stop offset="0%" stop-color="#f6f8fb" />
      <stop offset="100%" stop-color="#dbe3ee" />
    </linearGradient>
    <radialGradient id="spot" cx="50%" cy="40%" r="45%">
      <stop offset="0%" stop-color="#ffffff" stop-opacity="0.9" />
      <stop offset="100%" stop-color="#cfd8e5" stop-opacity="0" />
    </radialGradient>
    <filter id="shadow" x="-20%" y="-20%" width="140%" height="140%">
      <feDropShadow dx="0" dy="20" stdDeviation="18" flood-color="#2b3b52" flood-opacity="0.25" />
    </filter>
  </defs>

  <rect width="1280" height="840" fill="url(#bg)" />
  <rect width="1280" height="840" fill="url(#spot)" />

  <g filter="url(#shadow)">
    <rect x="220" y="130" width="840" height="580" rx="52" fill="#eef2f7" stroke="#c3cedd" />
  </g>

  <circle cx="640" cy="340" r="160" fill="#cbd6e3" />
  <path d="M470 570c40-105 140-165 170-165s130 60 170 165v110H470z" fill="#b8c4d5" />
  <path d="M520 275c40-65 95-90 120-90s80 25 120 90" fill="#aab7ca" />

  <circle cx="600" cy="330" r="10" fill="#6d7b8f" />
  <circle cx="680" cy="330" r="10" fill="#6d7b8f" />
  <path d="M595 370c20 22 70 22 90 0" stroke="#6d7b8f" stroke-width="6" fill="none" stroke-linecap="round" />

  <rect x="520" y="250" width="240" height="26" rx="13" fill="#b1bdcf" />
</svg>
